<svg version="1.1" xmlns="http://www.w3.org/2000/svg" xmlns:xlink="http://www.w3.org/1999/xlink" width="86" height="86" viewBox="0,0,86,86"><defs><clipPath id="clip-1"><path d="M219,202.0986v-44.1972h42v44.1972z" fill="none" stroke="none" stroke-width="1" stroke-linecap="butt" stroke-linejoin="miter"/></clipPath></defs><g transform="translate(-197,-137)"><g data-paper-data="{&quot;isPaintingLayer&quot;:true}" fill-rule="nonzero" stroke-miterlimit="10" stroke-dasharray="" stroke-dashoffset="0" style="mix-blend-mode: normal"><path d="M200,180c0,-22.0914 17.9086,-40 40,-40v0c22.0914,0 40,17.9086 40,40v0c0,22.0914 -17.9086,40 -40,40v0c-22.0914,0 -40,-17.9086 -40,-40z" fill-opacity="0.75" fill="#ffffff" stroke="none" stroke-width="1" stroke-linecap="butt" stroke-linejoin="miter"/><g clip-path="url(#clip-1)"><path d="M220.8942,162.9525c2.8066,-2.0889 6.212,-3.2171 9.7107,-3.2171c3.4987,0 6.9041,1.1282 9.7108,3.2171v0c2.8066,2.0889 6.2121,3.2171 9.7108,3.2171c3.4986,0 6.9041,-1.1282 9.7107,-3.2171v26.2658c-2.8066,2.0889 -6.2121,3.217 -9.7107,3.217c-3.4987,0 -6.9042,-1.1281 -9.7108,-3.217c-2.8067,-2.0889 -6.2121,-3.2171 -9.7108,-3.2171c-3.4987,0 -6.9041,1.1282 -9.7107,3.2171" fill="#4cbf56" stroke="none" stroke-width="1" stroke-linecap="butt" stroke-linejoin="miter"/><path d="M220.8942,162.9525c2.8066,-2.0889 6.212,-3.2171 9.7107,-3.2171c3.4987,0 6.9041,1.1282 9.7108,3.2171v0c2.8066,2.0889 6.2121,3.2171 9.7108,3.2171c3.4986,0 6.9041,-1.1282 9.7107,-3.2171v26.2658c-2.8066,2.0889 -6.2121,3.217 -9.7107,3.217c-3.4987,0 -6.9042,-1.1281 -9.7108,-3.217c-2.8067,-2.0889 -6.2121,-3.2171 -9.7108,-3.2171c-3.4987,0 -6.9041,1.1282 -9.7107,3.2171" fill="none" stroke="#45993d" stroke-width="2.52556" stroke-linecap="round" stroke-linejoin="round"/><path d="M220.8942,200.2044v-40.4089" fill="none" stroke="#45993d" stroke-width="3.78833" stroke-linecap="round" stroke-linejoin="round"/></g><path d="M240,223c-23.7482,0 -43,-19.2518 -43,-43h6c0,20.4345 16.5655,37 37,37zM283,180c0,23.7482 -19.2518,43 -43,43v-6c20.4345,0 37,-16.5655 37,-37zM240,137c23.7482,0 43,19.2518 43,43h-6c0,-20.4345 -16.5655,-37 -37,-37zM240,143c-20.4345,0 -37,16.5655 -37,37h-6c0,-23.7482 19.2518,-43 43,-43z" fill="#ffffff" stroke="none" stroke-width="1" stroke-linecap="butt" stroke-linejoin="miter"/></g></g></svg>