<svg xmlns="http://www.w3.org/2000/svg" width="473.329" height="236.4" viewBox="0 0 473.329 236.4">
  <defs>
    <filter id="f1" x="0" y="0" xmlns="http://www.w3.org/2000/svg">
      <feGaussianBlur in="SourceGraphic" stdDeviation="2"/>
    </filter>
  </defs>
  <g stroke-miterlimit="10">
    <path d="M0 236.4V0h473.328v236.4z" fill="#fff"/>
    <g fill="#e8e8e8" stroke="#e8e8e8" filter="url(#f1)">
      <path d="m472.746 87.009-7.042-27.519L448.327.79h12.837l11.547 41.479zM432.844 235.61l-17.392-58.709h12.838l17.384 58.71zm13.421-76.646a6.419 6.419 0 0 1-12.837 0 6.419 6.419 0 1 1 12.83 0zm0-24.16a6.419 6.419 0 0 1-12.837 0 6.419 6.419 0 1 1 12.83 0zm10.959 89.28a6.419 6.419 0 1 1 0-12.838 6.419 6.419 0 0 1 0 12.838zm0-24.16a6.419 6.419 0 1 1 0-12.837 6.419 6.419 0 0 1 0 12.837z"/>
      <path d="M415.452 176.901 398.075 118.2 380.69 59.491 363.314.79h12.83l17.385 58.701 34.77 117.418zm57.15 7.761L452.866 118.2l-17.377-58.709h.008L418.104.79h12.838l17.385 58.701 17.377 58.709 7.079 25.82zm-69.995 50.948-17.37-58.709h12.838l17.377 58.71zm-54.783 0-17.385-58.709h12.837l17.385 58.71zm24.386-11.526a6.419 6.419 0 1 1 0-12.838 6.419 6.419 0 0 1 0 12.838zm0-24.16a6.419 6.419 0 1 1 0-12.837 6.419 6.419 0 0 1 0 12.837zm-17.384-34.542a6.419 6.419 0 1 1 0-12.837 6.419 6.419 0 0 1 0 12.837zm0-24.159a6.419 6.419 0 1 1 0-12.838 6.419 6.419 0 0 1 0 12.838zm67.636-34.55a6.419 6.419 0 1 1 0-12.837 6.419 6.419 0 0 1 0 12.837zm0-24.159a6.419 6.419 0 1 1 0-12.838 6.419 6.419 0 0 1 0 12.838zm-10.966-40.961a6.419 6.419 0 1 1-12.83-.44 6.419 6.419 0 0 1 12.83.44zm0-24.159a6.419 6.419 0 1 1-12.83-.441 6.419 6.419 0 0 1 12.83.44z"/>
      <path d="M330.439 176.901 313.054 118.2h12.838l17.384 58.709zm54.798 0L367.854 118.2h12.837l17.385 58.709zm-47.788-94.387a6.419 6.419 0 1 1 0-12.838 6.419 6.419 0 0 1 0 12.838zm0 24.16a6.419 6.419 0 1 1 0-12.838 6.419 6.419 0 0 1 0 12.837zM313.054 118.2l-17.377-58.709h12.838l17.377 58.709zm54.799 0-17.377-58.709h12.837L380.69 118.2zm-47.789-94.387a6.419 6.419 0 1 1 0-12.838 6.419 6.419 0 0 1 0 12.838zm0 24.16a6.42 6.42 0 1 1 0-12.839 6.419 6.419 0 0 1 0 12.838zM295.677 59.49 278.294.79h12.837l17.385 58.701zm54.791 0L333.084.79h12.837l17.393 58.7zm-63.27 140.433a6.419 6.419 0 1 1 0-12.837 6.419 6.419 0 0 1 0 12.837zm0 24.16a6.419 6.419 0 1 1 0-12.838 6.419 6.419 0 0 1 0 12.838zm-24.395 11.526L245.426 176.9h12.837l17.377 58.71zm54.798 0L300.224 176.9h12.83l17.385 58.71zm-47.788-94.387a6.419 6.419 0 1 1 0-12.838 6.419 6.419 0 0 1 0 12.838zm0 24.16a6.419 6.419 0 1 1 0-12.838 6.419 6.419 0 0 1 0 12.837z"/>
      <path d="M245.426 176.901 228.041 118.2h12.838l17.384 58.709zm54.798 0L282.84 118.2h12.837l17.377 58.709zm-41.37-100.806a6.419 6.419 0 0 1-12.837 0 6.419 6.419 0 1 1 12.83 0zm0 24.16a6.419 6.419 0 0 1-12.837 0 6.419 6.419 0 1 1 12.83 0zM228.041 118.2l-17.377-58.709h12.838l17.384 58.709zm54.799 0-17.386-58.709h12.838l17.385 58.709zm-47.789-94.387a6.419 6.419 0 1 1 0-12.838 6.419 6.419 0 0 1 0 12.838zm0 24.16a6.42 6.42 0 1 1 0-12.839 6.419 6.419 0 0 1 0 12.838zM210.664 59.49 193.28.79h12.837l17.385 58.701zm54.791 0L248.078.79h12.838l17.377 58.701zm-56.86 134.014a6.419 6.419 0 0 1-12.837 0 6.423 6.423 0 0 1 12.845 0zm0 24.16a6.419 6.419 0 0 1-12.837 0 6.423 6.423 0 0 1 12.845 0zm-30.805 17.945L160.413 176.9h12.83l17.384 58.71zm54.798 0L215.203 176.9h12.838l17.385 58.71zm-47.789-94.387a6.419 6.419 0 1 1 0-12.838 6.419 6.419 0 0 1 0 12.838zm0 24.16a6.419 6.419 0 1 1 0-12.838 6.419 6.419 0 0 1 0 12.837z"/>
      <path d="M160.413 176.901 143.028 118.2h12.838l17.377 58.709zm54.79 0L197.826 118.2h12.838l17.377 58.709zm-47.788-94.387a6.419 6.419 0 1 1 0-12.838 6.419 6.419 0 0 1 0 12.838zm0 24.16a6.419 6.419 0 1 1 0-12.838 6.419 6.419 0 0 1 0 12.837zM143.028 118.2l-17.385-58.709h12.838l17.377 58.709zm54.799 0-17.385-58.709h12.838l17.384 58.709zm-47.79-94.387a6.419 6.419 0 1 1 0-12.838 6.419 6.419 0 0 1 0 12.838zm0 24.16a6.42 6.42 0 1 1 0-12.839 6.419 6.419 0 0 1 0 12.838zM125.644 59.49 108.266.79h12.838l17.377 58.701zm54.799 0L163.057.79h12.838l17.385 58.701zm-63.279 140.433a6.419 6.419 0 1 1 0-12.837 6.419 6.419 0 0 1 0 12.837zm0 24.16a6.419 6.419 0 1 1 0-12.838 6.419 6.419 0 0 1 0 12.838zm-24.387 11.526L75.393 176.9H88.23l17.385 58.71zm54.799 0L130.191 176.9h12.838l17.377 58.71zm-47.789-94.387a6.419 6.419 0 1 1 0-12.838 6.419 6.419 0 0 1 0 12.838zm0 24.16a6.419 6.419 0 1 1 0-12.838 6.419 6.419 0 0 1 0 12.837z"/>
      <path d="M75.392 176.901 58.014 118.2 40.629 59.491 23.246.79h12.837l17.385 58.701L70.852 118.2l17.377 58.709zm54.798 0L112.806 118.2 95.429 59.491 78.044.79h12.838l17.384 58.701 17.378 58.709 17.385 58.709zM62.554 235.61l-17.377-58.709h12.838l17.377 58.71zm-54.79 0L.72 208.648l-.09-38.567 19.963 65.53zm13.42-76.646a6.419 6.419 0 0 1-12.837 0 6.423 6.423 0 0 1 12.845 0zm0-24.16a6.419 6.419 0 0 1-12.837 0 6.423 6.423 0 0 1 12.845 0zm10.966 89.28a6.419 6.419 0 1 1 0-12.838 6.419 6.419 0 0 1 0 12.838zm0-24.16a6.419 6.419 0 1 1 0-12.837 6.419 6.419 0 0 1 0 12.837zM65.017 47.972a6.419 6.419 0 1 1 0-12.838 6.419 6.419 0 0 1 0 12.838zm17.385 34.542a6.419 6.419 0 1 1 0-12.838 6.419 6.419 0 0 1 0 12.838zM65.017 23.813a6.419 6.419 0 1 1 0-12.838 6.419 6.419 0 0 1 0 12.838zm17.385 82.86a6.419 6.419 0 1 1 0-12.837 6.419 6.419 0 0 1 0 12.837zm-37.225 69.993-17.383-58.701-17.385-58.71L.616 24.584.686.554H5.87l17.377 58.702 34.769 117.418zM3.807 76.095c0 2.69-.714 4.994-3.062 5.949 0-.044-.228-9.56-.039-11.703 2.117 1.05 3.101 3.232 3.101 5.754zM.745 105.99c0-.03-.006-9.189 0-11.345 1.967 1.097 3.062 3.198 3.062 5.61 0 2.506-.966 4.678-3.062 5.734z"/>
    </g>
    <path d="M28.404 219.287a5 5 0 0 1-5-5V22.113a5 5 0 0 1 5-5h416.52a5 5 0 0 1 5 5v192.174a5 5 0 0 1-5 5z" fill-opacity=".51" stroke="#1c1c1c"/>
    <path d="M34.49 48.918a5 5 0 0 1-5-5V27.831a5 5 0 0 1 5-5h364.348a5 5 0 0 1 5 5v16.087a5 5 0 0 1-5 5zm0 29.348a5 5 0 0 1-5-5V57.179a5 5 0 0 1 5-5l276.348-.5a5 5 0 0 1 5 5s.5 10.303.5 13.188v3.399a5 5 0 0 1-5 5zm0 29.348a5 5 0 0 1-5-5V86.527a5 5 0 0 1 5-5h331.848a5 5 0 0 1 5 5v16.087a5 5 0 0 1-5 5zm-.5 28.848a5 5 0 0 1-5-5v-16.087a5 5 0 0 1 5-5h397.348c2.761 0 5 1.738 5 4.5v16.087a5 5 0 0 1-5 5zm.5 29.848a5 5 0 0 1-5-5v-16.088a5 5 0 0 1 5-5h307.848c2.761 0 5 1.739 5 4.5v16.087a5 5 0 0 1-5 5zm0 29.347a5 5 0 0 1-5-5V174.57a5 5 0 0 1 5-5h364.348a5 5 0 0 1 5 5v16.087a5 5 0 0 1-5 5z" fill-opacity=".31"/>
    <path d="M32.78 214.717a5 5 0 0 1-5-5v-5.034a5 5 0 0 1 5-5h407.768a5 5 0 0 1 5 5v5.034a5 5 0 0 1-5 5z" fill-opacity=".51"/>
    <path d="m212.067 119.42-.215-25.386h8.534v48.62h-7.1l-16.35-25.53a203 203 0 0 1-2.976-4.697 279 279 0 0 0-3.047-4.84q.215 2.295.394 4.804t.18 4.805l.215 25.386h-8.534V93.89h6.67l16.851 25.242a129 129 0 0 1 2.904 4.41q1.47 2.331 2.905 4.482-.144-2.294-.287-4.625a66 66 0 0 1-.144-3.98m134.314 23.162V94.033h28.827v6.454h-20.294v13.553h16.709l-1.076 6.525h-15.633v15.562h21.37v6.454zm-87.917-45.392-3.514 6.167-.932-.502a31 31 0 0 0-2.438-1.147 27 27 0 0 0-3.299-1.148q-1.792-.502-3.442-.502-2.582 0-4.482 1.22-1.9 1.218-1.9 3.8 0 3.227 2.08 5.27 2.079 2.044 6.525 3.766 2.868 1.146 5.127 2.402 2.259 1.255 3.837 2.904a11.3 11.3 0 0 1 2.402 3.8q.825 2.152.825 5.164 0 2.726-1.04 5.378a13.6 13.6 0 0 1-3.084 4.697q-2.043 2.044-5.055 3.299t-6.956 1.255q-2.797 0-5.307-.574a37 37 0 0 1-4.553-1.327q-2.044-.752-3.514-1.541-1.47-.79-2.187-1.22l3.012-6.597 1.29.717q1.29.717 3.156 1.578 1.864.861 3.944 1.578t3.585.717q3.8 0 5.665-1.865t1.865-5.235q0-1.577-.502-2.76a5.9 5.9 0 0 0-1.434-2.044q-.933-.861-2.26-1.542a32 32 0 0 0-2.975-1.327q-3.228-1.362-5.773-2.725-2.546-1.362-4.338-3.119a12 12 0 0 1-2.725-4.016q-.933-2.258-.933-5.414 0-2.653 1.148-4.984a13.05 13.05 0 0 1 3.155-4.087q2.008-1.758 4.805-2.797t6.167-1.04q2.51 0 4.804.466 2.295.467 4.195 1.076 1.9.61 3.227 1.255t1.829 1.004m-128.72 1.362-4.374 5.235q-1.722-1.865-3.622-2.832-1.9-.968-4.41-.968-3.084 0-5.199 1.398t-3.406 3.872q-1.29 2.475-1.865 5.773-.573 3.3-.573 7.1t.537 7.099 1.865 5.808 3.585 3.944 5.701 1.434q1.65 0 3.156-.286a45 45 0 0 0 2.76-.61q1.255-.322 2.08-.61.825-.286 1.04-.358l2.008 6.024-.932.358q-.933.36-2.618.825t-4.016.86q-2.33.395-5.127.395-9.61 0-14.45-6.131t-4.84-17.964q0-5.665 1.29-10.362 1.291-4.696 3.909-8.067 2.617-3.37 6.597-5.235t9.359-1.865q4.302 0 7.063 1.578 2.76 1.578 4.482 3.585m184.94 44.03V94.034h8.534v42.094h18.143v6.454zM154.699 93.388q5.379 0 9.179 1.721t6.275 4.877 3.621 7.708 1.147 10.22q0 5.592-1.255 10.218-1.254 4.625-3.872 7.924-2.618 3.298-6.597 5.127-3.98 1.83-9.43 1.829-5.379 0-9.215-1.614-3.837-1.613-6.31-4.733-2.475-3.12-3.622-7.565t-1.147-10.183q0-5.594 1.255-10.29 1.254-4.698 3.872-8.104t6.633-5.27q4.017-1.865 9.466-1.865m131.517 0q5.378 0 9.179 1.721 3.8 1.722 6.274 4.877t3.622 7.708q1.147 4.553 1.147 10.22 0 5.592-1.255 10.218-1.254 4.625-3.872 7.924-2.618 3.298-6.597 5.127-3.98 1.83-9.43 1.829-5.378 0-9.215-1.614-3.837-1.613-6.31-4.733-2.475-3.12-3.622-7.565t-1.147-10.183q0-5.594 1.255-10.29 1.254-4.698 3.872-8.104t6.633-5.27q4.016-1.865 9.466-1.865m-132.52 6.598q-3.157 0-5.236 1.398-2.08 1.398-3.37 3.836-1.29 2.439-1.829 5.737-.538 3.3-.538 7.171 0 3.657.502 6.956t1.83 5.809 3.656 4.016q2.331 1.505 6.06 1.505 3.083 0 5.199-1.362t3.406-3.729 1.829-5.63q.537-3.261.537-7.063 0-3.657-.501-7.027-.503-3.37-1.83-5.952t-3.656-4.124q-2.331-1.54-6.06-1.541m131.516 0q-3.156 0-5.235 1.398t-3.37 3.836q-1.29 2.439-1.829 5.737-.538 3.3-.538 7.171 0 3.657.502 6.956t1.829 5.809 3.657 4.016q2.331 1.505 6.06 1.505 3.082 0 5.199-1.362 2.115-1.362 3.406-3.729t1.828-5.63q.538-3.261.538-7.063 0-3.657-.502-7.027t-1.828-5.952-3.658-4.124q-2.33-1.54-6.06-1.541" fill="none" stroke="#fff" stroke-width="5" stroke-linecap="round" stroke-linejoin="round"/>
    <path d="m212.067 119.42-.215-25.386h8.534v48.62h-7.1l-16.35-25.53a203 203 0 0 1-2.976-4.697 279 279 0 0 0-3.047-4.84q.215 2.295.394 4.804t.18 4.805l.215 25.386h-8.534V93.89h6.67l16.851 25.242a129 129 0 0 1 2.904 4.41q1.47 2.331 2.905 4.482-.144-2.294-.287-4.625a66 66 0 0 1-.144-3.98m134.314 23.162V94.033h28.827v6.454h-20.294v13.553h16.709l-1.076 6.525h-15.633v15.562h21.37v6.454zm-87.917-45.392-3.514 6.167-.932-.502a31 31 0 0 0-2.438-1.147 27 27 0 0 0-3.299-1.148q-1.792-.502-3.442-.502-2.582 0-4.482 1.22-1.9 1.218-1.9 3.8 0 3.227 2.08 5.27 2.079 2.044 6.525 3.766 2.868 1.146 5.127 2.402 2.259 1.255 3.837 2.904a11.3 11.3 0 0 1 2.402 3.8q.825 2.152.825 5.164 0 2.726-1.04 5.378a13.6 13.6 0 0 1-3.084 4.697q-2.043 2.044-5.055 3.299t-6.956 1.255q-2.797 0-5.307-.574a37 37 0 0 1-4.553-1.327q-2.044-.752-3.514-1.541-1.47-.79-2.187-1.22l3.012-6.597 1.29.717q1.29.717 3.156 1.578 1.864.861 3.944 1.578t3.585.717q3.8 0 5.665-1.865t1.865-5.235q0-1.577-.502-2.76a5.9 5.9 0 0 0-1.434-2.044q-.933-.861-2.26-1.542a32 32 0 0 0-2.975-1.327q-3.228-1.362-5.773-2.725-2.546-1.362-4.338-3.119a12 12 0 0 1-2.725-4.016q-.933-2.258-.933-5.414 0-2.653 1.148-4.984a13.05 13.05 0 0 1 3.155-4.087q2.008-1.758 4.805-2.797t6.167-1.04q2.51 0 4.804.466 2.295.467 4.195 1.076 1.9.61 3.227 1.255t1.829 1.004m-128.72 1.362-4.374 5.235q-1.722-1.865-3.622-2.832-1.9-.968-4.41-.968-3.084 0-5.199 1.398t-3.406 3.872q-1.29 2.475-1.865 5.773-.573 3.3-.573 7.1t.537 7.099 1.865 5.808 3.585 3.944 5.701 1.434q1.65 0 3.156-.286a45 45 0 0 0 2.76-.61q1.255-.322 2.08-.61.825-.286 1.04-.358l2.008 6.024-.932.358q-.933.36-2.618.825t-4.016.86q-2.33.395-5.127.395-9.61 0-14.45-6.131t-4.84-17.964q0-5.665 1.29-10.362 1.291-4.696 3.909-8.067 2.617-3.37 6.597-5.235t9.359-1.865q4.302 0 7.063 1.578 2.76 1.578 4.482 3.585m184.94 44.03V94.034h8.534v42.094h18.143v6.454zM154.699 93.388q5.379 0 9.179 1.721t6.275 4.877 3.621 7.708 1.147 10.22q0 5.592-1.255 10.218-1.254 4.625-3.872 7.924-2.618 3.298-6.597 5.127-3.98 1.83-9.43 1.829-5.379 0-9.215-1.614-3.837-1.613-6.31-4.733-2.475-3.12-3.622-7.565t-1.147-10.183q0-5.594 1.255-10.29 1.254-4.698 3.872-8.104t6.633-5.27q4.017-1.865 9.466-1.865m131.517 0q5.378 0 9.179 1.721 3.8 1.722 6.274 4.877t3.622 7.708q1.147 4.553 1.147 10.22 0 5.592-1.255 10.218-1.254 4.625-3.872 7.924-2.618 3.298-6.597 5.127-3.98 1.83-9.43 1.829-5.378 0-9.215-1.614-3.837-1.613-6.31-4.733-2.475-3.12-3.622-7.565t-1.147-10.183q0-5.594 1.255-10.29 1.254-4.698 3.872-8.104t6.633-5.27q4.016-1.865 9.466-1.865m-132.52 6.598q-3.157 0-5.236 1.398-2.08 1.398-3.37 3.836-1.29 2.439-1.829 5.737-.538 3.3-.538 7.171 0 3.657.502 6.956t1.83 5.809 3.656 4.016q2.331 1.505 6.06 1.505 3.083 0 5.199-1.362t3.406-3.729 1.829-5.63q.537-3.261.537-7.063 0-3.657-.501-7.027-.503-3.37-1.83-5.952t-3.656-4.124q-2.331-1.54-6.06-1.541m131.516 0q-3.156 0-5.235 1.398t-3.37 3.836q-1.29 2.439-1.829 5.737-.538 3.3-.538 7.171 0 3.657.502 6.956t1.829 5.809 3.657 4.016q2.331 1.505 6.06 1.505 3.082 0 5.199-1.362 2.115-1.362 3.406-3.729t1.828-5.63q.538-3.261.538-7.063 0-3.657-.502-7.027t-1.828-5.952-3.658-4.124q-2.33-1.54-6.06-1.541" fill-rule="evenodd"/>
    <path d="m32.486 210.813 5.844-3.485-5.98-3.74" fill="none" stroke="#fff" stroke-width="2" stroke-linecap="round" stroke-linejoin="round"/>
  </g>
</svg>
