<svg version="1.2" xmlns="http://www.w3.org/2000/svg" viewBox="0 0 597 297" width="597" height="297">
	<title>file</title>
	<style>
		.s0 { fill: #ff4646 } 
		.s1 { opacity: .13;fill: #000000;stroke: #000000;stroke-linecap: round;stroke-miterlimit:10;stroke-width: .4 } 
		.s2 { opacity: .13;fill: none;stroke: #000000;stroke-miterlimit:10;stroke-width: 45 } 
		.s3 { opacity: .3;fill: #ffffff;stroke: #000000;stroke-linecap: round;stroke-linejoin: round;stroke-width: 15 } 
		.s4 { fill: #ffffff;stroke: #000000;stroke-linecap: round;stroke-linejoin: round;stroke-width: .4 } 
		.s5 { opacity: .3;fill: #000000;stroke: #000000;stroke-linejoin: round;stroke-width: 15 } 
		.s6 { fill: #000000;stroke: #000000;stroke-miterlimit:10;stroke-width: .4 } 
		.s7 { fill: #ffffff } 
	</style>
	<g>
		<g>
			<path class="s0" d="m0 298v-298h596.6v298z"/>
			<g>
				<path class="s1" d="m529.7 0.1c0 0 23.5 17.9 36.3 31.2 12.7 13.3 30.5 37.9 30.5 37.9v87.5c0 0-32.2-60.2-63.5-94.1-33.1-35.8-79.3-62.4-79.3-62.4z"/>
				<path class="s1" d="m143 0.2c0 0-46.3 26.6-79.4 62.4-31.3 33.9-63.4 94.1-63.4 94.1v-87.5c0 0 17.7-24.6 30.5-37.9 12.8-13.3 36.3-31.2 36.3-31.2z"/>
				<g>
					<path class="s2" d="m245.2 297.8c0-0.1 0-1.5 0-1.5 0-29.7 24.1-53.8 53.8-53.8 29.7 0 53.7 24.1 53.7 53.8 0 0.1 0 1.3 0 1.5"/>
					<path class="s2" d="m144.1 297.8c0 0 0-1.6 0-1.8 0.4-85.2 69.6-154.1 154.9-154.1 85.5 0 154.8 69.3 154.8 154.9q0 0.4 0 0.9"/>
					<path class="s2" d="m46 297.8c0 0 0-1.8 0-2 0.5-139.3 113.6-252 253-252 139.1 0 252 112.3 253 251.2 0 0.3 0 2.8 0 2.8"/>
				</g>
			</g>
			<path fill-rule="evenodd" class="s3" d="m454.6 104.8v-52.9h9.8l0.8 6.9q3.3-4 7.7-6.2 4.5-2.1 9.4-2.1 5.3 0 8.8 2.2 1.2 0.8 2.2 1.9c1.4 1.5 2.3 3.3 2.9 5.2q0.8 2.8 0.8 6.4v38.6h-11.2c0-0.9 0-34.8 0-35.7q-0.1-2.5-0.4-4.3-0.1-0.3-0.1-0.5-0.5-2.1-1.5-3.3-0.3-0.3-0.7-0.6-0.7-0.6-1.5-0.8-0.7-0.3-1.6-0.4-0.9-0.1-1.7-0.1c-2.1 0-4.2 0.6-6 1.7q-0.5 0.2-0.9 0.5-3.2 2.2-5.5 5.5v38zm-337.4-74.1v59.7q-0.1 1.4 0.4 2.8 1.5 3.9 7.6 3.9 2.5 0 4.9-0.7 1.8-0.4 3.5-1.1l2.8 7.8q-5 2.7-12.1 3-0.8 0-1.5 0-2.6 0-5.1-0.5-3.6-0.9-6.3-3-0.5-0.5-1-1c-2-2-3.3-4.5-3.9-7.2q-0.6-2.5-0.6-5v-50.5h-15.9v-8.2zm-63.9 74.1h-20.2v-69.1h18.9q8.8 0 15.2 2.6 1.5 0.6 2.9 1.4c3.7 2 6.2 5.6 6.8 9.8q0.3 1.8 0.3 3.7 0.1 2.4-0.6 4.6c-0.6 2-1.6 3.8-3 5.3q-3.7 3.8-9.2 5 3 0.5 5.9 1.7c2 0.9 3.8 2 5.4 3.4 1.8 1.6 3.2 3.6 3.8 6q0.6 2 0.7 4.4 0 0.6 0 1.3 0.1 2.9-0.6 5.8c-1 4-3.5 7.4-7 9.5q-6.8 4.1-16.8 4.5-1.3 0.1-2.5 0.1zm199.5-12.4l5.1 7.2q-2.6 2.2-5.7 3.6-1.4 0.6-2.8 1.1-4.9 1.8-10.1 1.8c-2.6 0-5.3-0.3-7.9-0.9-4.2-1.1-8.1-3.4-11-6.6-3-3.2-5-7.2-5.9-11.6q-0.9-4.1-0.9-8.4 0-4.1 0.9-8.1 0.7-3.3 2.2-6.3 3.1-6.4 9-10c2.7-1.8 5.8-2.9 9-3.3q2.4-0.4 4.8-0.4 10.5 0 18.4 6.4l-5.2 7q-2.6-1.8-5.6-3c-2.3-0.9-4.8-1.4-7.4-1.4-1.6 0-3.2 0.2-4.7 0.7-2.3 0.8-4.2 2.2-5.7 4.1-1.1 1.3-1.9 2.9-2.4 4.5q-0.7 2.2-1.1 4.8-0.3 2.5-0.3 5 0 9.5 3.8 13.9c2.1 2.4 5 3.9 8.2 4.2q1.1 0.2 2.2 0.2c2.4 0 4.8-0.5 7.1-1.4q2.5-0.9 5.1-2.6 0.5-0.3 0.9-0.5zm84.7 12.4v-69.1h11.5v59.4h31.1l-1.3 9.7zm85.8-52.9v44.7h14.5v8.2h-41.4v-8.2h15.7v-36.5h-15.2v-8.2zm-137.6-22.5v75.4h-11.2v-74.1zm240.5 0v75.4h-11.3v-74.1zm-333.3 28.6q6.2 7.4 6.2 20.3 0 12.8-6.3 20.3c-3.3 4-8 6.5-13.2 7.2q-2.2 0.3-4.4 0.3-11.4 0-17.7-7.4c-2.2-2.7-3.9-5.8-4.8-9.2q-1.1-3.7-1.4-8.1 0-1.5 0-3-0.1-4.3 0.8-8.5 1.1-5.4 3.9-9.6 0.7-1.1 1.6-2.2c3.5-4.1 8.4-6.8 13.8-7.4q1.9-0.2 3.9-0.2c2.5 0 5 0.3 7.4 0.9 4 1.1 7.6 3.4 10.2 6.6zm128-6.1l-21.4 23.6 23.6 29.3h-13.8l-22.7-29 21.2-23.9zm240.5 0l-21.4 23.6 23.6 29.3h-13.7l-22.8-29 21.3-23.9zm-386 7.3q-2 0-3.9 0.6c-2.2 0.7-4.1 2.2-5.3 4.1q-2.9 4.4-3.1 13.2 0 0.6 0 1.3 0 2.5 0.3 5.1 0.5 5.1 2.1 8.3 0.3 0.5 0.6 1c1.6 2.5 4.2 4.2 7.1 4.5q1 0.2 2.1 0.2 1.9 0 3.8-0.6c2.2-0.7 4.1-2.1 5.3-4.1q1.1-1.8 1.7-3.8 1.1-3.7 1.2-9 0.1-0.9 0.1-1.7 0-2.6-0.3-5.1-0.5-5.1-2.2-8.3-0.2-0.5-0.5-1c-1.6-2.5-4.1-4.2-7-4.5q-1-0.2-2-0.2zm-120.9 13.8h-9.8v22.8h9.4q13.1 0 14-9.4 0.1-0.8 0.1-1.5 0-1.7-0.3-3.4-0.7-3.9-3.3-5.8c-1.2-0.8-2.5-1.5-3.9-1.9q-1.7-0.5-3.7-0.6-1.2-0.2-2.5-0.2zm-1.5-28.6h-8.3v19.9h9q1.6 0 3.1-0.2 3.7-0.5 5.7-2.2c1.1-0.9 1.9-2.1 2.3-3.4q0.4-1.3 0.6-2.9 0.1-0.7 0.1-1.5 0-3.6-1.6-5.8-0.7-0.9-1.6-1.6-2.3-1.7-6-2.1-1.6-0.2-3.3-0.2zm367.9-16.4c1.4 1.3 2.1 3.1 2.1 5q0 0 0 0.1 0 1.4-0.5 2.6c-0.3 0.9-0.9 1.7-1.6 2.4q-2 2-5.2 2-1.2 0-2.4-0.3c-1.1-0.3-2.1-0.9-2.9-1.7-1.3-1.3-2-3-2-4.8q0-0.1 0-0.2 0-1.3 0.4-2.5c0.3-1 0.9-1.9 1.6-2.6q2.1-2 5.3-2 1.3-0.1 2.5 0.3c1.1 0.4 2 0.9 2.7 1.7z"/>
			<path fill-rule="evenodd" class="s4" d="m454.6 104.8v-52.9h9.8l0.8 6.9q3.3-4 7.7-6.2 4.5-2.1 9.4-2.1 5.3 0 8.8 2.2 1.2 0.8 2.2 1.9c1.4 1.5 2.3 3.3 2.9 5.2q0.8 2.8 0.8 6.4v38.6h-11.2c0-0.9 0-34.8 0-35.7q-0.1-2.5-0.4-4.3-0.1-0.3-0.1-0.5-0.5-2.1-1.5-3.3-0.3-0.3-0.7-0.6-0.7-0.6-1.5-0.8-0.7-0.3-1.6-0.4-0.9-0.1-1.7-0.1c-2.1 0-4.2 0.6-6 1.7q-0.5 0.2-0.9 0.5-3.2 2.2-5.5 5.5v38zm-337.4-74.1v59.7q-0.1 1.4 0.4 2.8 1.5 3.9 7.6 3.9 2.5 0 4.9-0.7 1.8-0.4 3.5-1.1l2.8 7.8q-5 2.7-12.1 3-0.8 0-1.5 0-2.6 0-5.1-0.5-3.6-0.9-6.3-3-0.5-0.5-1-1c-2-2-3.3-4.5-3.9-7.2q-0.6-2.5-0.6-5v-50.5h-15.9v-8.2zm-63.9 74.1h-20.2v-69.1h18.9q8.8 0 15.2 2.6 1.5 0.6 2.9 1.4c3.7 2 6.2 5.6 6.8 9.8q0.3 1.8 0.3 3.7 0.1 2.4-0.6 4.6c-0.6 2-1.6 3.8-3 5.3q-3.7 3.8-9.2 5 3 0.5 5.9 1.7c2 0.9 3.8 2 5.4 3.4 1.8 1.6 3.2 3.6 3.8 6q0.6 2 0.7 4.4 0 0.6 0 1.3 0.1 2.9-0.6 5.8c-1 4-3.5 7.4-7 9.5q-6.8 4.1-16.8 4.5-1.3 0.1-2.5 0.1zm199.5-12.4l5.1 7.2q-2.6 2.2-5.7 3.6-1.4 0.6-2.8 1.1-4.9 1.8-10.1 1.8c-2.6 0-5.3-0.3-7.9-0.9-4.2-1.1-8.1-3.4-11-6.6-3-3.2-5-7.2-5.9-11.6q-0.9-4.1-0.9-8.4 0-4.1 0.9-8.1 0.7-3.3 2.2-6.3 3.1-6.4 9-10c2.7-1.8 5.8-2.9 9-3.3q2.4-0.4 4.8-0.4 10.5 0 18.4 6.4l-5.2 7q-2.6-1.8-5.6-3c-2.3-0.9-4.8-1.4-7.4-1.4-1.6 0-3.2 0.2-4.7 0.7-2.3 0.8-4.2 2.2-5.7 4.1-1.1 1.3-1.9 2.9-2.4 4.5q-0.7 2.2-1.1 4.8-0.3 2.5-0.3 5 0 9.5 3.8 13.9c2.1 2.4 5 3.9 8.2 4.2q1.1 0.2 2.2 0.2c2.4 0 4.8-0.5 7.1-1.4q2.5-0.9 5.1-2.6 0.5-0.3 0.9-0.5zm84.7 12.4v-69.1h11.5v59.4h31.1l-1.3 9.7zm85.8-52.9v44.7h14.5v8.2h-41.4v-8.2h15.7v-36.5h-15.2v-8.2zm-137.6-22.5v75.4h-11.2v-74.1zm240.5 0v75.4h-11.3v-74.1zm-333.3 28.6q6.2 7.4 6.2 20.3 0 12.8-6.3 20.3c-3.3 4-8 6.5-13.2 7.2q-2.2 0.3-4.4 0.3-11.4 0-17.7-7.4c-2.2-2.7-3.9-5.8-4.8-9.2q-1.1-3.7-1.4-8.1 0-1.5 0-3-0.1-4.3 0.8-8.5 1.1-5.4 3.9-9.6 0.7-1.1 1.6-2.2c3.5-4.1 8.4-6.8 13.8-7.4q1.9-0.2 3.9-0.2c2.5 0 5 0.3 7.4 0.9 4 1.1 7.6 3.4 10.2 6.6zm128-6.1l-21.4 23.6 23.6 29.3h-13.8l-22.7-29 21.2-23.9zm240.5 0l-21.4 23.6 23.6 29.3h-13.7l-22.8-29 21.3-23.9zm-386 7.3q-2 0-3.9 0.6c-2.2 0.7-4.1 2.2-5.3 4.1q-2.9 4.4-3.1 13.2 0 0.6 0 1.3 0 2.5 0.3 5.1 0.5 5.1 2.1 8.3 0.3 0.5 0.6 1c1.6 2.5 4.2 4.2 7.1 4.5q1 0.2 2.1 0.2 1.9 0 3.8-0.6c2.2-0.7 4.1-2.1 5.3-4.1q1.1-1.8 1.7-3.8 1.1-3.7 1.2-9 0.1-0.9 0.1-1.7 0-2.6-0.3-5.1-0.5-5.1-2.2-8.3-0.2-0.5-0.5-1c-1.6-2.5-4.1-4.2-7-4.5q-1-0.2-2-0.2zm-120.9 13.8h-9.8v22.8h9.4q13.1 0 14-9.4 0.1-0.8 0.1-1.5 0-1.7-0.3-3.4-0.7-3.9-3.3-5.8c-1.2-0.8-2.5-1.5-3.9-1.9q-1.7-0.5-3.7-0.6-1.2-0.2-2.5-0.2zm-1.5-28.6h-8.3v19.9h9q1.6 0 3.1-0.2 3.7-0.5 5.7-2.2c1.1-0.9 1.9-2.1 2.3-3.4q0.4-1.3 0.6-2.9 0.1-0.7 0.1-1.5 0-3.6-1.6-5.8-0.7-0.9-1.6-1.6-2.3-1.7-6-2.1-1.6-0.2-3.3-0.2zm367.9-16.4c1.4 1.3 2.1 3.1 2.1 5q0 0 0 0.1 0 1.4-0.5 2.6c-0.3 0.9-0.9 1.7-1.6 2.4q-2 2-5.2 2-1.2 0-2.4-0.3c-1.1-0.3-2.1-0.9-2.9-1.7-1.3-1.3-2-3-2-4.8q0-0.1 0-0.2 0-1.3 0.4-2.5c0.3-1 0.9-1.9 1.6-2.6q2.1-2 5.3-2 1.3-0.1 2.5 0.3c1.1 0.4 2 0.9 2.7 1.7z"/>
			<g>
				<path class="s5" d="m358.8 168.3v73.5c0 1.7-0.9 3.2-2.5 3.9l-56.2 25.9c-1.1 0.6-2.4 0.6-3.6 0l-56.2-25.9c-1.5-0.7-2.5-2.2-2.5-3.9v-73.5c0-1.7 1-3.2 2.5-4l56.2-25.9c1.2-0.5 2.5-0.5 3.6 0l56.2 25.9c1.6 0.8 2.5 2.3 2.5 4zm-8.6 6.7l-47.6 22v64l47.6-22zm-6-6.7l-45.9-21.2-45.8 21.2 45.8 21.1zm-46.5 100.4l2.5-74.8-61.2-24.7 1.3 74.4z"/>
				<path class="s6" d="m238.8 243l5.4-52.8 55.1 5.6-5.3 52.8z"/>
				<path class="s7" d="m358.8 168.3v73.5c0 1.7-0.9 3.2-2.5 3.9l-56.2 25.9c-1.1 0.6-2.4 0.6-3.6 0l-56.2-25.9c-1.5-0.7-2.5-2.2-2.5-3.9v-73.5c0-1.7 1-3.2 2.5-4l56.2-25.9c1.2-0.5 2.5-0.5 3.6 0l56.2 25.9c1.6 0.8 2.5 2.3 2.5 4zm-14.6 0l-45.9-21.2-45.8 21.2 45.8 21.2zm6 6.7l-47.5 22v63.9l47.5-21.9zm-62.2 41.9c-5.4-8.5-12.5-14.7-19.5-17.7-7-3.1-13.9-3.1-19 0.9l-1.3 1c-1 0.8-1 2.9 0.1 4.6 1 1.8 2.7 2.6 3.8 1.8l1.3-1c8-6.2 22.5 0.1 31 13.6l1.4 2.1c1.1 1.7 2.8 2.4 3.8 1.6 1-0.9 0.9-3-0.2-4.7zm-7.6 6.5c-3.1-5.4-7.4-9.2-11.6-11-4.2-1.8-8.3-1.5-11.1 1.1l-1.3 1.3c-1 0.9-0.8 3 0.3 4.7 1.1 1.8 2.8 2.4 3.8 1.5l1.3-1.3c3.3-3.1 11-0.1 14.7 6.5l1.4 2.4c1.1 1.8 2.8 2.6 3.8 1.9 1.1-0.8 1.1-2.9 0.1-4.7zm-7.3 5.9c-1.1-1.7-2.5-3-3.9-3.6-1.3-0.6-2.7-0.5-3.7 0.3-2 1.7-1.9 5.9 0.2 9.4 2.2 3.5 5.6 5 7.6 3.3 2-1.7 1.9-5.9-0.2-9.4z"/>
			</g>
		</g>
	</g>
</svg>